<svg width="26" height="26" viewBox="0 0 26 26" fill="none" xmlns="http://www.w3.org/2000/svg">
<g clip-path="url(#clip0_10289_38941)">
<path d="M14.4991 6.10155L19.0893 10.6917L10.7805 19.0004L6.19042 14.4103L14.4991 6.10155ZM11.4342 20.3222L20.4111 11.3453C20.5951 11.1613 20.6871 10.9435 20.6871 10.6917C20.6871 10.4399 20.5951 10.222 20.4111 10.038L15.1528 4.77971C14.9785 4.6054 14.7606 4.51825 14.4991 4.51825C14.2377 4.51825 14.0198 4.6054 13.8455 4.77971L4.86858 13.7566C4.68458 13.9406 4.59259 14.1585 4.59259 14.4103C4.59259 14.662 4.68458 14.8799 4.86858 15.0639L10.1269 20.3222C10.3012 20.4965 10.5191 20.5837 10.7805 20.5837C11.042 20.5837 11.2599 20.4965 11.4342 20.3222ZM24.3476 11.0693L11.1727 24.2587C10.8144 24.617 10.3762 24.7961 9.85816 24.7961C9.34008 24.7961 8.90188 24.617 8.54358 24.2587L6.71334 22.4285C7.25564 21.8862 7.52678 21.2277 7.52678 20.453C7.52678 19.6783 7.25564 19.0198 6.71334 18.4775C6.17105 17.9352 5.51255 17.664 4.73784 17.664C3.96314 17.664 3.30464 17.9352 2.76235 18.4775L0.946631 16.6472C0.58833 16.2889 0.40918 15.8507 0.40918 15.3326C0.40918 14.8146 0.58833 14.3764 0.946631 14.0181L14.1215 0.857764C14.4798 0.499463 14.918 0.320312 15.436 0.320312C15.9541 0.320312 16.3923 0.499463 16.7506 0.857764L18.5663 2.67348C18.024 3.21577 17.7529 3.87427 17.7529 4.64898C17.7529 5.42368 18.024 6.08218 18.5663 6.62447C19.1086 7.16677 19.7671 7.43791 20.5418 7.43791C21.3165 7.43791 21.975 7.16677 22.5173 6.62447L24.3476 8.44019C24.7059 8.79849 24.885 9.23668 24.885 9.75477C24.885 10.2729 24.7059 10.711 24.3476 11.0693Z" fill="url(#paint0_radial_10289_38941)"/>
</g>
<defs>
<radialGradient id="paint0_radial_10289_38941" cx="0" cy="0" r="1" gradientUnits="userSpaceOnUse" gradientTransform="translate(12.6471 12.5582) rotate(90) scale(12.2379)">
<stop offset="0.119792" stop-color="#8CF1FF"/>
<stop offset="1" stop-color="#7CA9FF"/>
</radialGradient>
<clipPath id="clip0_10289_38941">
<rect width="25.1004" height="25.1004" fill="white" transform="translate(0.0898438)"/>
</clipPath>
</defs>
</svg>
