<svg width="277" height="187" viewBox="0 0 277 187" fill="none" xmlns="http://www.w3.org/2000/svg">
<path d="M252.397 0.910156H24.2036C10.9824 0.910156 0.264648 12.935 0.264648 27.7699V159.223C0.264648 174.056 10.9824 186.082 24.2036 186.082H252.397C265.618 186.082 276.336 174.056 276.336 159.223V27.7699C276.336 12.935 265.618 0.910156 252.397 0.910156ZM241.994 142.87C241.994 154.013 233.942 163.047 224.01 163.047H52.5906C42.6587 163.047 34.6065 154.013 34.6065 142.87V44.1224C34.6065 32.9793 42.6587 23.945 52.5906 23.945H224.01C233.942 23.945 241.994 32.9793 241.994 44.1224V142.87Z" fill="url(#paint0_linear_10336_36115)"/>
<defs>
<linearGradient id="paint0_linear_10336_36115" x1="146.222" y1="-2.81761" x2="183.367" y2="275.205" gradientUnits="userSpaceOnUse">
<stop stop-color="#FFE073"/>
<stop offset="1" stop-color="#E38601"/>
</linearGradient>
</defs>
</svg>
