<svg width="26" height="26" viewBox="0 0 26 26" fill="none" xmlns="http://www.w3.org/2000/svg">
<path d="M12.605 24.2089C18.4134 24.2089 23.122 19.5002 23.122 13.6918C23.122 7.88338 18.4134 3.17473 12.605 3.17473C6.79654 3.17473 2.08789 7.88338 2.08789 13.6918C2.08789 19.5002 6.79654 24.2089 12.605 24.2089Z" fill="#F4900C"/>
<path d="M12.605 22.9716C18.4134 22.9716 23.122 18.263 23.122 12.4546C23.122 6.64615 18.4134 1.9375 12.605 1.9375C6.79654 1.9375 2.08789 6.64615 2.08789 12.4546C2.08789 18.263 6.79654 22.9716 12.605 22.9716Z" fill="#FFCC4D"/>
<path d="M12.605 21.7344C17.3884 21.7344 21.2661 17.8566 21.2661 13.0732C21.2661 8.28983 17.3884 4.41212 12.605 4.41212C7.82161 4.41212 3.9439 8.28983 3.9439 13.0732C3.9439 17.8566 7.82161 21.7344 12.605 21.7344Z" fill="#FFE8B6"/>
<path d="M12.605 21.1157C17.3884 21.1157 21.2661 17.238 21.2661 12.4546C21.2661 7.67122 17.3884 3.79351 12.605 3.79351C7.82161 3.79351 3.9439 7.67122 3.9439 12.4546C3.9439 17.238 7.82161 21.1157 12.605 21.1157Z" fill="#FFAC33"/>
<path d="M12.3734 16.2381C11.5029 16.9849 10.2199 16.916 9.51542 16.081C8.86163 15.3061 8.94265 14.1059 9.70386 13.3588C9.83953 13.2257 9.98778 13.1134 10.144 13.0231C10.2827 12.9428 10.3237 12.7635 10.2244 12.6478L10.2055 12.6257C9.96665 12.3472 9.53545 12.3247 9.24195 12.5761L9.23649 12.5808C7.9244 13.7063 7.77486 15.6649 8.95355 16.8522C9.94885 17.8544 11.6029 17.9365 12.7902 17.0433C13.4333 16.5597 13.8329 15.8884 13.9759 15.1837L13.0392 14.0917C13.2575 14.8297 13.0228 15.6811 12.3734 16.2381Z" fill="url(#paint0_radial_10289_38935)"/>
<path d="M12.3734 16.2381C11.5029 16.9849 10.2199 16.916 9.51542 16.081C8.86163 15.3061 8.94265 14.1059 9.70386 13.3588C9.83953 13.2257 9.98778 13.1134 10.144 13.0231C10.2827 12.9428 10.3237 12.7635 10.2244 12.6478L10.2055 12.6257C9.96665 12.3472 9.53545 12.3247 9.24195 12.5761L9.23649 12.5808C7.9244 13.7063 7.77486 15.6649 8.95355 16.8522C9.94885 17.8544 11.6029 17.9365 12.7902 17.0433C13.4333 16.5597 13.8329 15.8884 13.9759 15.1837L13.0392 14.0917C13.2575 14.8297 13.0228 15.6811 12.3734 16.2381Z" fill="#DA903C"/>
<path d="M13.3434 9.05661C12.7942 9.52768 12.4488 10.1439 12.3198 10.7892L13.2588 11.8839C13.0273 11.1112 13.2941 10.2148 14.0114 9.66022C14.8316 9.02603 15.9936 9.07932 16.6838 9.78283C17.4862 10.6005 17.3816 11.9417 16.481 12.7143C16.3734 12.8066 16.2594 12.8864 16.1409 12.9538C16.0055 13.0308 15.9733 13.211 16.07 13.3237L16.0806 13.3361C16.3204 13.6156 16.7553 13.648 17.0505 13.397C17.0808 13.371 17.1112 13.3445 17.1409 13.3172C18.296 12.2579 18.4717 10.5016 17.5396 9.33931C16.5262 8.07559 14.6263 7.95613 13.3434 9.05661Z" fill="url(#paint1_radial_10289_38935)"/>
<path d="M13.3434 9.05661C12.7942 9.52768 12.4488 10.1439 12.3198 10.7892L13.2588 11.8839C13.0273 11.1112 13.2941 10.2148 14.0114 9.66022C14.8316 9.02603 15.9936 9.07932 16.6838 9.78283C17.4862 10.6005 17.3816 11.9417 16.481 12.7143C16.3734 12.8066 16.2594 12.8864 16.1409 12.9538C16.0055 13.0308 15.9733 13.211 16.07 13.3237L16.0806 13.3361C16.3204 13.6156 16.7553 13.648 17.0505 13.397C17.0808 13.371 17.1112 13.3445 17.1409 13.3172C18.296 12.2579 18.4717 10.5016 17.5396 9.33931C16.5262 8.07559 14.6263 7.95613 13.3434 9.05661Z" fill="#DA903C"/>
<path d="M11.6325 10.6317L11.0503 11.1311L14.6628 15.3423L15.245 14.8429L11.6325 10.6317Z" fill="url(#paint2_radial_10289_38935)"/>
<path d="M11.6325 10.6317L11.0503 11.1311L14.6628 15.3423L15.245 14.8429L11.6325 10.6317Z" fill="#DA903C"/>
<path d="M12.0506 15.5926C11.1801 16.3394 9.89709 16.2705 9.19264 15.4354C8.53885 14.6606 8.61987 13.4604 9.38108 12.7132C9.51675 12.5802 9.665 12.4679 9.82122 12.3776C9.95997 12.2973 10.001 12.118 9.90167 12.0022L9.88275 11.9801C9.64388 11.7017 9.21268 11.6792 8.91918 11.9305L8.91372 11.9352C7.60162 13.0608 7.45209 15.0194 8.63078 16.2066C9.62607 17.2089 11.2802 17.291 12.4674 16.3978C13.1105 15.9141 13.5102 15.2429 13.6532 14.5382L12.7164 13.4461C12.9347 14.1841 12.7 15.0355 12.0506 15.5926Z" fill="url(#paint3_radial_10289_38935)"/>
<path d="M13.0206 8.41106C12.4715 8.88213 12.126 9.49834 11.997 10.1437L12.936 11.2383C12.7046 10.4657 12.9713 9.56923 13.6887 9.01467C14.5088 8.38048 15.6708 8.43377 16.3611 9.13729C17.1635 9.95496 17.0588 11.2962 16.1582 12.0687C16.0506 12.161 15.9366 12.2408 15.8181 12.3082C15.6827 12.3852 15.6506 12.5655 15.7472 12.6781L15.7579 12.6906C15.9976 12.9701 16.4326 13.0024 16.7278 12.7514C16.7581 12.7254 16.7884 12.6989 16.8181 12.6717C17.9732 11.6123 18.1489 9.85606 17.2168 8.69377C16.2034 7.43004 14.3035 7.31058 13.0206 8.41106Z" fill="url(#paint4_radial_10289_38935)"/>
<path d="M11.3097 9.98614L10.7276 10.4856L14.34 14.6968L14.9222 14.1974L11.3097 9.98614Z" fill="url(#paint5_radial_10289_38935)"/>
<defs>
<radialGradient id="paint0_radial_10289_38935" cx="0" cy="0" r="1" gradientUnits="userSpaceOnUse" gradientTransform="translate(12.5509 11.5027) rotate(96.0873) scale(42.0262 41.2469)">
<stop stop-color="#FFE8B6"/>
<stop offset="1" stop-color="#FFCC4D"/>
</radialGradient>
<radialGradient id="paint1_radial_10289_38935" cx="0" cy="0" r="1" gradientUnits="userSpaceOnUse" gradientTransform="translate(12.5509 11.5027) rotate(96.0873) scale(42.0262 41.2469)">
<stop stop-color="#FFE8B6"/>
<stop offset="1" stop-color="#FFCC4D"/>
</radialGradient>
<radialGradient id="paint2_radial_10289_38935" cx="0" cy="0" r="1" gradientUnits="userSpaceOnUse" gradientTransform="translate(12.5509 11.5027) rotate(96.0873) scale(42.0262 41.2469)">
<stop stop-color="#FFE8B6"/>
<stop offset="1" stop-color="#FFCC4D"/>
</radialGradient>
<radialGradient id="paint3_radial_10289_38935" cx="0" cy="0" r="1" gradientUnits="userSpaceOnUse" gradientTransform="translate(12.5509 11.5027) rotate(96.0873) scale(42.0262 41.2469)">
<stop stop-color="#FFE8B6"/>
<stop offset="1" stop-color="#FFCC4D"/>
</radialGradient>
<radialGradient id="paint4_radial_10289_38935" cx="0" cy="0" r="1" gradientUnits="userSpaceOnUse" gradientTransform="translate(12.5509 11.5027) rotate(96.0873) scale(42.0262 41.2469)">
<stop stop-color="#FFE8B6"/>
<stop offset="1" stop-color="#FFCC4D"/>
</radialGradient>
<radialGradient id="paint5_radial_10289_38935" cx="0" cy="0" r="1" gradientUnits="userSpaceOnUse" gradientTransform="translate(12.5509 11.5027) rotate(96.0873) scale(42.0262 41.2469)">
<stop stop-color="#FFE8B6"/>
<stop offset="1" stop-color="#FFCC4D"/>
</radialGradient>
</defs>
</svg>
