<svg width="326" height="187" viewBox="0 0 326 187" fill="none" xmlns="http://www.w3.org/2000/svg">
<g clip-path="url(#clip0_10336_36028)">
<path d="M312.887 23.9453H248.011C257.943 23.9453 265.995 32.9796 265.995 44.1227V142.87C265.995 154.013 257.943 163.048 248.011 163.048H312.887C319.693 163.048 325.21 156.858 325.21 149.221V37.7706C325.21 30.135 319.693 23.9453 312.887 23.9453Z" fill="url(#paint0_linear_10336_36028)"/>
<path d="M58.6065 142.87V44.1227C58.6065 32.9796 66.6577 23.9453 76.5895 23.9453H14.2473C7.44163 23.9453 1.9248 30.135 1.9248 37.7706V149.221C1.9248 156.858 7.44163 163.048 14.2473 163.048H76.5895C66.6577 163.048 58.6065 154.013 58.6065 142.87Z" fill="#9493B1"/>
<path d="M58.6065 142.87V44.1227C58.6065 32.9796 66.6577 23.9453 76.5895 23.9453H14.2473C7.44163 23.9453 1.9248 30.135 1.9248 37.7706V149.221C1.9248 156.858 7.44163 163.048 14.2473 163.048H76.5895C66.6577 163.048 58.6065 154.013 58.6065 142.87Z" fill="url(#paint1_linear_10336_36028)"/>
<path d="M276.397 0.910156H48.2036C34.9824 0.910156 24.2646 12.935 24.2646 27.7699V159.223C24.2646 174.056 34.9824 186.082 48.2036 186.082H276.397C289.618 186.082 300.336 174.056 300.336 159.223V27.7699C300.336 12.935 289.618 0.910156 276.397 0.910156ZM265.994 142.87C265.994 154.013 257.942 163.047 248.01 163.047H76.5906C66.6587 163.047 58.6065 154.013 58.6065 142.87V44.1224C58.6065 32.9793 66.6587 23.945 76.5906 23.945H248.01C257.942 23.945 265.994 32.9793 265.994 44.1224V142.87Z" fill="url(#paint2_linear_10336_36028)"/>
<path d="M254.823 18.4219H69.7793C59.0581 18.4219 50.3672 28.174 50.3672 40.2027V146.797C50.3672 158.827 59.0581 168.578 69.7793 168.578H254.823C265.543 168.578 274.236 158.827 274.236 146.797V40.2027C274.236 28.174 265.543 18.4219 254.823 18.4219ZM265.995 142.874C265.995 154.017 257.943 163.051 248.011 163.051H76.5918C66.6599 163.051 58.6076 154.017 58.6076 142.874V44.1261C58.6076 32.9829 66.6599 23.9499 76.5918 23.9499H248.011C257.943 23.9499 265.995 32.9829 265.995 44.1261V142.874Z" fill="#D45339"/>
<g filter="url(#filter0_i_10336_36028)">
<path d="M274.429 96.8156C273.537 96.4991 273.543 95.2356 274.437 94.9276L309.847 82.7417C310.498 82.5176 311.176 83.0034 311.173 83.692L311.056 108.399C311.052 109.088 310.37 109.567 309.721 109.337L274.429 96.8156Z" fill="#293C4B"/>
</g>
<g filter="url(#filter1_i_10336_36028)">
<path d="M277.004 93.5778C276.134 93.2745 276.102 92.0558 276.955 91.7076L310.986 77.8198C311.644 77.5513 312.364 78.0352 312.364 78.7456L312.364 104.495C312.364 105.183 311.685 105.666 311.035 105.439L277.004 93.5778Z" fill="#F16943"/>
</g>
<g filter="url(#filter2_i_10336_36028)">
<path d="M49.8889 91.1844C50.7808 91.5009 50.7749 92.7644 49.8799 93.0724L14.4701 105.258C13.819 105.482 13.1415 104.997 13.1447 104.308L13.2619 79.6011C13.2651 78.9124 13.9472 78.4331 14.5962 78.6634L49.8889 91.1844Z" fill="#293C4B"/>
</g>
<g filter="url(#filter3_i_10336_36028)">
<path d="M47.3134 94.4222C48.1835 94.7255 48.2152 95.9442 47.3621 96.2924L13.3312 110.18C12.6734 110.449 11.9533 109.965 11.9533 109.254L11.9531 83.5051C11.9531 82.8168 12.6322 82.3343 13.2822 82.5608L47.3134 94.4222Z" fill="#F16943"/>
</g>
</g>
<defs>
<filter id="filter0_i_10336_36028" x="273.763" y="82.6875" width="37.4102" height="30.707" filterUnits="userSpaceOnUse" color-interpolation-filters="sRGB">
<feFlood flood-opacity="0" result="BackgroundImageFix"/>
<feBlend mode="normal" in="SourceGraphic" in2="BackgroundImageFix" result="shape"/>
<feColorMatrix in="SourceAlpha" type="matrix" values="0 0 0 0 0 0 0 0 0 0 0 0 0 0 0 0 0 0 127 0" result="hardAlpha"/>
<feOffset dy="4"/>
<feGaussianBlur stdDeviation="2"/>
<feComposite in2="hardAlpha" operator="arithmetic" k2="-1" k3="1"/>
<feColorMatrix type="matrix" values="0 0 0 0 0 0 0 0 0 0 0 0 0 0 0 0 0 0 0.25 0"/>
<feBlend mode="normal" in2="shape" result="effect1_innerShadow_10336_36028"/>
</filter>
<filter id="filter1_i_10336_36028" x="276.333" y="77.7461" width="36.0312" height="31.75" filterUnits="userSpaceOnUse" color-interpolation-filters="sRGB">
<feFlood flood-opacity="0" result="BackgroundImageFix"/>
<feBlend mode="normal" in="SourceGraphic" in2="BackgroundImageFix" result="shape"/>
<feColorMatrix in="SourceAlpha" type="matrix" values="0 0 0 0 0 0 0 0 0 0 0 0 0 0 0 0 0 0 127 0" result="hardAlpha"/>
<feOffset dy="4"/>
<feGaussianBlur stdDeviation="2"/>
<feComposite in2="hardAlpha" operator="arithmetic" k2="-1" k3="1"/>
<feColorMatrix type="matrix" values="0 0 0 0 0 0 0 0 0 0 0 0 0 0 0 0 0 0 0.25 0"/>
<feBlend mode="normal" in2="shape" result="effect1_innerShadow_10336_36028"/>
</filter>
<filter id="filter2_i_10336_36028" x="13.1445" y="78.6055" width="37.4102" height="30.707" filterUnits="userSpaceOnUse" color-interpolation-filters="sRGB">
<feFlood flood-opacity="0" result="BackgroundImageFix"/>
<feBlend mode="normal" in="SourceGraphic" in2="BackgroundImageFix" result="shape"/>
<feColorMatrix in="SourceAlpha" type="matrix" values="0 0 0 0 0 0 0 0 0 0 0 0 0 0 0 0 0 0 127 0" result="hardAlpha"/>
<feOffset dy="4"/>
<feGaussianBlur stdDeviation="2"/>
<feComposite in2="hardAlpha" operator="arithmetic" k2="-1" k3="1"/>
<feColorMatrix type="matrix" values="0 0 0 0 0 0 0 0 0 0 0 0 0 0 0 0 0 0 0.25 0"/>
<feBlend mode="normal" in2="shape" result="effect1_innerShadow_10336_36028"/>
</filter>
<filter id="filter3_i_10336_36028" x="11.9531" y="82.5039" width="36.0312" height="31.75" filterUnits="userSpaceOnUse" color-interpolation-filters="sRGB">
<feFlood flood-opacity="0" result="BackgroundImageFix"/>
<feBlend mode="normal" in="SourceGraphic" in2="BackgroundImageFix" result="shape"/>
<feColorMatrix in="SourceAlpha" type="matrix" values="0 0 0 0 0 0 0 0 0 0 0 0 0 0 0 0 0 0 127 0" result="hardAlpha"/>
<feOffset dy="4"/>
<feGaussianBlur stdDeviation="2"/>
<feComposite in2="hardAlpha" operator="arithmetic" k2="-1" k3="1"/>
<feColorMatrix type="matrix" values="0 0 0 0 0 0 0 0 0 0 0 0 0 0 0 0 0 0 0.25 0"/>
<feBlend mode="normal" in2="shape" result="effect1_innerShadow_10336_36028"/>
</filter>
<linearGradient id="paint0_linear_10336_36028" x1="340.187" y1="35.4527" x2="286.61" y2="163.048" gradientUnits="userSpaceOnUse">
<stop stop-color="#FFBD60"/>
<stop offset="1" stop-color="#DA903C"/>
</linearGradient>
<linearGradient id="paint1_linear_10336_36028" x1="91.0756" y1="35.4527" x2="36.2471" y2="161.741" gradientUnits="userSpaceOnUse">
<stop stop-color="#FFBD60"/>
<stop offset="1" stop-color="#DA903C"/>
</linearGradient>
<linearGradient id="paint2_linear_10336_36028" x1="170.222" y1="-2.81761" x2="207.367" y2="275.205" gradientUnits="userSpaceOnUse">
<stop stop-color="#FFE073"/>
<stop offset="1" stop-color="#E38601"/>
</linearGradient>
<clipPath id="clip0_10336_36028">
<rect width="325.21" height="185.172" fill="white" transform="translate(0 0.910156)"/>
</clipPath>
</defs>
</svg>
